# Blender 4.5.0
# www.blender.org
mtllib fl1.mtl
o Cube.002
v -3.433812 0.014440 0.565680
v -3.433812 3.014440 0.565680
v -3.433812 0.014440 -2.234320
v -3.433812 3.014440 -2.234320
v 2.566188 0.014440 0.565680
v 2.566188 3.014440 0.565680
v 2.566188 0.014440 -2.234320
v 2.566188 3.014440 -2.234320
v 1.901150 0.014440 -2.234320
v 0.729157 0.014440 -2.234320
v 0.723308 1.822796 -2.234320
v 1.908311 1.825680 -2.234320
v 1.896727 1.825652 -2.234320
v 0.723357 1.825728 -2.234320
v 0.731882 2.342551 -2.234320
v 1.898842 2.352368 -2.234320
v -3.327746 0.067473 0.565680
v -3.327746 2.961407 0.565680
v -3.347209 0.057741 -2.176585
v -3.347209 2.971139 -2.176585
v 2.460122 0.067473 0.565680
v 2.460122 2.961407 0.565680
v 2.479586 0.057741 -2.176585
v 2.479586 2.971139 -2.176585
v 1.901150 0.081539 -2.189644
v 0.729157 0.081536 -2.189635
v 0.723308 1.822796 -2.134320
v 1.908311 1.825680 -2.134320
v 1.896727 1.825652 -2.134320
v 0.723357 1.825728 -2.134320
v 0.731882 2.342551 -2.134320
v 1.898842 2.352368 -2.134320
vn -1.0000 -0.0000 -0.0000
vn -0.0000 -0.0000 -1.0000
vn 1.0000 -0.0000 -0.0000
vn -0.0000 -1.0000 -0.0000
vn -0.0000 1.0000 -0.0000
vn 1.0000 -0.0000 -0.0071
vn -0.0000 0.0014 1.0000
vn -1.0000 -0.0000 -0.0071
vn -0.0000 1.0000 0.0017
vn -0.0000 -1.0000 -0.0035
vn -0.0000 -0.0000 1.0000
vn -0.0000 0.5543 -0.8323
vn 1.0000 0.0033 -0.0015
vn 0.0024 -1.0000 -0.0000
vn -1.0000 0.0041 -0.0019
vn 0.9999 -0.0165 -0.0000
vn 0.0084 -1.0000 -0.0000
vn -1.0000 0.0040 -0.0000
vt 0.974562 0.326188
vt 0.974562 0.642562
vt 0.753100 0.642562
vt 0.753100 0.326188
vt 0.246900 0.642562
vt 0.246900 0.326188
vt 0.303007 0.326188
vt 0.302403 0.517198
vt 0.303381 0.517195
vt 0.303202 0.572742
vt 0.401654 0.571706
vt 0.402374 0.517203
vt 0.402378 0.516894
vt 0.401884 0.326188
vt 0.025438 0.642562
vt 0.025438 0.326188
vt 0.246901 0.009813
vt 0.246900 0.229323
vt 0.246900 0.291121
vt 0.025438 0.009813
vt 0.246900 0.958937
vt 0.025438 0.958937
s 0
usemtl Material.004
f 1/1/1 2/2/1 4/3/1 3/4/1
f 3/4/2 4/3/2 8/5/2 7/6/2 9/7/2 12/8/2 13/9/2 16/10/2 15/11/2 14/12/2 11/13/2 10/14/2
f 7/6/3 8/5/3 6/15/3 5/16/3
f 3/17/4 10/18/4 9/19/4 7/6/4 5/16/4 1/20/4
f 8/5/5 4/21/5 2/22/5 6/15/5
f 17/1/6 19/4/6 20/3/6 18/2/6
f 19/4/7 26/14/7 27/13/7 30/12/7 31/11/7 32/10/7 29/9/7 28/8/7 25/7/7 23/6/7 24/5/7 20/3/7
f 23/6/8 21/16/8 22/15/8 24/5/8
f 19/17/9 17/20/9 21/16/9 23/6/9 25/19/9 26/18/9
f 24/5/10 22/15/10 18/22/10 20/21/10
f 2/2/11 1/1/11 17/1/11 18/2/11
f 5/16/11 6/15/11 22/15/11 21/16/11
f 1/20/11 5/16/11 21/16/11 17/20/11
f 6/15/11 2/22/11 18/22/11 22/15/11
f 9/19/12 10/18/12 26/18/12 25/19/12
f 10/14/13 11/13/13 27/13/13 26/14/13
f 13/9/14 12/8/14 28/8/14 29/9/14
f 12/8/15 9/7/15 25/7/15 28/8/15
f 14/12/16 15/11/16 31/11/16 30/12/16
f 15/11/17 16/10/17 32/10/17 31/11/17
f 16/10/18 13/9/18 29/9/18 32/10/18
f 11/13/16 14/12/16 30/12/16 27/13/16
