# Blender 4.5.0
# www.blender.org
mtllib fl2.mtl
o left
v -3.433812 3.017650 0.585680
v -3.433812 6.017650 0.585680
v -3.433812 3.017650 -2.214320
v -3.433812 6.017650 -2.214320
v 0.566188 3.017650 0.585680
v 0.566188 6.017650 0.585680
v 0.566188 3.017650 -2.214320
v 0.566188 6.017650 -2.214320
v -3.383643 3.073353 0.585680
v -3.383643 5.961946 0.585680
v -3.392849 3.063131 -2.170678
v -3.392849 5.972168 -2.170678
v 0.516019 3.073353 0.585680
v 0.516019 5.961946 0.585680
v 0.525225 3.063131 -2.170678
v 0.525225 5.972168 -2.170678
vn -1.0000 -0.0000 -0.0000
vn -0.0000 -0.0000 -1.0000
vn 1.0000 -0.0000 -0.0000
vn -0.0000 -1.0000 -0.0000
vn -0.0000 1.0000 -0.0000
vn 1.0000 -0.0000 -0.0033
vn -0.0000 -0.0000 1.0000
vn -1.0000 -0.0000 -0.0033
vn -0.0000 1.0000 -0.0037
vn -0.0000 -1.0000 -0.0037
vt 0.375000 0.000000
vt 0.625000 0.000000
vt 0.625000 0.250000
vt 0.375000 0.250000
vt 0.625000 0.500000
vt 0.375000 0.500000
vt 0.625000 0.750000
vt 0.375000 0.750000
vt 0.125000 0.500000
vt 0.125000 0.750000
vt 0.875000 0.500000
vt 0.875000 0.750000
s 0
usemtl Material.001
f 1/1/1 2/2/1 4/3/1 3/4/1
f 3/4/2 4/3/2 8/5/2 7/6/2
f 7/6/3 8/5/3 6/7/3 5/8/3
f 3/9/4 7/6/4 5/8/4 1/10/4
f 8/5/5 4/11/5 2/12/5 6/7/5
f 9/1/6 11/4/6 12/3/6 10/2/6
f 11/4/7 15/6/7 16/5/7 12/3/7
f 15/6/8 13/8/8 14/7/8 16/5/8
f 11/9/9 9/10/9 13/8/9 15/6/9
f 16/5/10 14/7/10 10/12/10 12/11/10
f 2/2/7 1/1/7 9/1/7 10/2/7
f 5/8/7 6/7/7 14/7/7 13/8/7
f 1/10/7 5/8/7 13/8/7 9/10/7
f 6/7/7 2/12/7 10/12/7 14/7/7
