# Blender 4.5.0
# www.blender.org
mtllib Fl_2obj.mtl
o Cube
v -3.449157 3.066347 0.561945
v -3.449157 6.266347 0.561945
v -3.449157 3.066347 -3.438055
v -3.449157 6.266347 -3.438055
v 2.550843 3.066347 0.561945
v 2.550843 6.266347 0.561945
v 2.550843 3.066347 -3.438055
v 2.550843 6.266347 -3.438055
v 2.550843 4.125422 -3.438055
v -3.449157 4.125425 -3.438055
v -3.164422 6.114489 -3.438055
v 2.266108 6.114489 -3.438055
v 2.266108 4.277281 -3.438055
v -3.164422 4.277284 -3.438055
v -3.449157 3.226347 0.561945
v -3.449157 6.106348 0.561945
v -3.449157 3.179484 -3.296633
v -3.449157 6.153214 -3.296629
v 2.550843 3.226347 0.561945
v 2.550843 6.106348 0.561945
v 2.550843 3.179484 -3.296633
v 2.550843 6.153214 -3.296629
v 2.550843 4.125422 -3.238055
v -3.449157 4.125425 -3.238055
v -3.164422 6.114489 -3.238055
v 2.266108 6.114489 -3.238055
v 2.266108 4.277281 -3.238055
v -3.164422 4.277284 -3.238055
vn -0.0000 -0.0000 -1.0000
vn -0.0000 -1.0000 -0.0000
vn -0.0000 1.0000 -0.0000
vn -0.0000 -0.0618 0.9981
vn -0.0000 0.9999 -0.0121
vn -0.0000 -0.9999 -0.0121
vn -0.0000 0.8342 0.5515
vn 0.1053 0.0151 0.9943
vn -0.1053 0.0151 0.9943
vn -0.0000 -0.0000 1.0000
vn -1.0000 -0.0000 -0.0000
vn 1.0000 -0.0000 -0.0000
vt 0.375000 0.250000
vt 0.457740 0.250000
vt 0.457740 0.500000
vt 0.375000 0.500000
vt 0.125000 0.500000
vt 0.375000 0.750000
vt 0.125000 0.750000
vt 0.625000 0.500000
vt 0.875000 0.500000
vt 0.875000 0.750000
vt 0.625000 0.750000
vt 0.613136 0.488136
vt 0.613136 0.261864
vt 0.625000 0.250000
vt 0.469604 0.488136
vt 0.469604 0.261864
s 0
usemtl Material.001
f 3/1/1 10/2/1 9/3/1 7/4/1
f 3/5/2 7/4/2 5/6/2 1/7/2
f 8/8/3 4/9/3 2/10/3 6/11/3
f 12/12/1 11/13/1 4/14/1 8/8/1
f 13/15/1 12/12/1 8/8/1 9/3/1
f 11/13/1 14/16/1 10/2/1 4/14/1
f 14/16/1 13/15/1 9/3/1 10/2/1
f 17/1/4 21/4/4 23/3/4 24/2/4
f 17/5/5 15/7/5 19/6/5 21/4/5
f 22/8/6 20/11/6 16/10/6 18/9/6
f 26/12/7 22/8/7 18/14/7 25/13/7
f 27/15/8 23/3/8 22/8/8 26/12/8
f 25/13/9 18/14/9 24/2/9 28/16/9
f 28/16/10 24/2/10 23/3/10 27/15/10
f 3/5/11 1/7/11 15/7/11 17/5/11
f 2/10/11 4/9/11 18/9/11 16/10/11
f 10/2/11 3/1/11 17/1/11 24/2/11
f 7/4/12 9/3/12 23/3/12 21/4/12
f 5/6/12 7/4/12 21/4/12 19/6/12
f 8/8/12 6/11/12 20/11/12 22/8/12
f 1/7/10 5/6/10 19/6/10 15/7/10
f 6/11/10 2/10/10 16/10/10 20/11/10
f 12/12/11 13/15/11 27/15/11 26/12/11
f 14/16/12 11/13/12 25/13/12 28/16/12
f 11/13/2 12/12/2 26/12/2 25/13/2
f 9/3/12 8/8/12 22/8/12 23/3/12
f 4/14/11 10/2/11 24/2/11 18/14/11
f 13/15/3 14/16/3 28/16/3 27/15/3
