{
  "accessors": [
    {
      "bufferView": 2,
      "componentType": 5126,
      "count": 569,
      "max": [
        0.16139298677444458,
        0.2008943110704422,
        2.3090877080364245e-18
      ],
      "min": [
        -0.27348199486732483,
        -0.05574966222047806,
        -1.5243178606033325
      ],
      "type": "VEC3"
    },
    {
      "bufferView": 2,
      "byteOffset": 6828,
      "componentType": 5126,
      "count": 569,
      "max": [
        1.0,
        1.0,
        1.0
      ],
      "min": [
        -1.0,
        -1.0,
        -1.0
      ],
      "type": "VEC3"
    },
    {
      "bufferView": 3,
      "componentType": 5126,
      "count": 569,
      "max": [
        0.980245053768158,
        1.0,
        1.0,
        1.0
      ],
      "min": [
        -0.9968448877334595,
        -0.9998477101325989,
        -1.0,
        -1.0
      ],
      "type": "VEC4"
    },
    {
      "bufferView": 1,
      "componentType": 5126,
      "count": 569,
      "max": [
        1.990234375,
        0.99365234375
      ],
      "min": [
        0.042205810546875,
        0.006801605224609375
      ],
      "type": "VEC2"
    },
    {
      "bufferView": 1,
      "byteOffset": 4552,
      "componentType": 5126,
      "count": 569,
      "max": [
        1.990234375,
        0.99365234375
      ],
      "min": [
        0.042205810546875,
        0.006801605224609375
      ],
      "type": "VEC2"
    },
    {
      "bufferView": 0,
      "componentType": 5125,
      "count": 2316,
      "type": "SCALAR"
    },
    {
      "bufferView": 2,
      "byteOffset": 13656,
      "componentType": 5126,
      "count": 162,
      "max": [
        0.2905299961566925,
        0.034775007516145706,
        0.2905294597148895
      ],
      "min": [
        -0.2905299961566925,
        -0.034775007516145706,
        -0.2905294597148895
      ],
      "type": "VEC3"
    },
    {
      "bufferView": 2,
      "byteOffset": 15600,
      "componentType": 5126,
      "count": 162,
      "max": [
        1.0,
        1.0,
        1.0
      ],
      "min": [
        -1.0,
        -1.0,
        -1.0
      ],
      "type": "VEC3"
    },
    {
      "bufferView": 3,
      "byteOffset": 9104,
      "componentType": 5126,
      "count": 162,
      "max": [
        0.9996909499168396,
        1.0,
        0.9996910095214844,
        1.0
      ],
      "min": [
        -0.9996817708015442,
        -0.08047811686992645,
        -0.9996816515922546,
        -1.0
      ],
      "type": "VEC4"
    },
    {
      "bufferView": 1,
      "byteOffset": 9104,
      "componentType": 5126,
      "count": 162,
      "max": [
        1.5846999883651733,
        0.9969000220298767
      ],
      "min": [
        0.0066999997943639755,
        0.018799999728798866
      ],
      "type": "VEC2"
    },
    {
      "bufferView": 1,
      "byteOffset": 10400,
      "componentType": 5126,
      "count": 162,
      "max": [
        1.5846999883651733,
        0.9969000220298767
      ],
      "min": [
        0.0066999997943639755,
        0.018799999728798866
      ],
      "type": "VEC2"
    },
    {
      "bufferView": 0,
      "byteOffset": 9264,
      "componentType": 5125,
      "count": 372,
      "type": "SCALAR"
    },
    {
      "bufferView": 2,
      "byteOffset": 17544,
      "componentType": 5126,
      "count": 304,
      "max": [
        0.4618913233280182,
        0.05664706230163574,
        0.4618913233280182
      ],
      "min": [
        -0.4618913233280182,
        -0.05782134085893631,
        -0.4618913233280182
      ],
      "type": "VEC3"
    },
    {
      "bufferView": 2,
      "byteOffset": 21192,
      "componentType": 5126,
      "count": 304,
      "max": [
        0.9998025894165039,
        0.9918258786201477,
        0.999805212020874
      ],
      "min": [
        -0.9998032450675964,
        -0.9887979626655579,
        -0.9998058080673218
      ],
      "type": "VEC3"
    },
    {
      "bufferView": 3,
      "byteOffset": 11696,
      "componentType": 5126,
      "count": 304,
      "max": [
        0.9923021793365479,
        0.3008395731449127,
        0.9923031330108643,
        1.0
      ],
      "min": [
        -0.992303192615509,
        -0.9571158289909363,
        -0.992303192615509,
        -1.0
      ],
      "type": "VEC4"
    },
    {
      "bufferView": 1,
      "byteOffset": 11696,
      "componentType": 5126,
      "count": 304,
      "max": [
        1.98828125,
        0.8037109375
      ],
      "min": [
        0.10467529296875,
        0.0157012939453125
      ],
      "type": "VEC2"
    },
    {
      "bufferView": 1,
      "byteOffset": 14128,
      "componentType": 5126,
      "count": 304,
      "max": [
        1.98828125,
        0.8037109375
      ],
      "min": [
        0.10467529296875,
        0.0157012939453125
      ],
      "type": "VEC2"
    },
    {
      "bufferView": 0,
      "byteOffset": 10752,
      "componentType": 5125,
      "count": 840,
      "type": "SCALAR"
    },
    {
      "bufferView": 4,
      "componentType": 5126,
      "count": 121,
      "max": [
        2.0
      ],
      "min": [
        0.0
      ],
      "type": "SCALAR"
    },
    {
      "bufferView": 5,
      "componentType": 5126,
      "count": 121,
      "max": [
        0.0,
        0.0,
        0.9996573328971863,
        1.0
      ],
      "min": [
        0.0,
        0.0,
        -1.0,
        7.549790126404332e-08
      ],
      "type": "VEC4"
    },
    {
      "bufferView": 4,
      "byteOffset": 484,
      "componentType": 5126,
      "count": 1,
      "max": [
        0.0
      ],
      "min": [
        0.0
      ],
      "type": "SCALAR"
    },
    {
      "bufferView": 5,
      "byteOffset": 1936,
      "componentType": 5126,
      "count": 1,
      "max": [
        1.0,
        0.0,
        -0.0,
        0.0
      ],
      "min": [
        1.0,
        0.0,
        -0.0,
        0.0
      ],
      "type": "VEC4"
    }
  ],
  "animations": [
    {
      "channels": [
        {
          "sampler": 0,
          "target": {
            "node": 6,
            "path": "rotation"
          }
        }
      ],
      "name": "Action",
      "samplers": [
        {
          "input": 18,
          "interpolation": "LINEAR",
          "output": 19
        }
      ]
    },
    {
      "channels": [
        {
          "sampler": 0,
          "target": {
            "node": 6,
            "path": "rotation"
          }
        }
      ],
      "name": "SpinnerAction",
      "samplers": [
        {
          "input": 20,
          "interpolation": "LINEAR",
          "output": 21
        }
      ]
    }
  ],
  "asset": {
    "extras": {
      "author": "sqdldev (https://sketchfab.com/qqqedfm)",
      "license": "CC-BY-4.0 (http://creativecommons.org/licenses/by/4.0/)",
      "source": "https://sketchfab.com/3d-models/genshin-impact-windmill-mechanism-read-desc-59f5b5f81f1149ebae28d9d7be968ed3",
      "title": "Genshin Impact Windmill Mechanism (Read Desc.)"
    },
    "generator": "Sketchfab-13.23.0",
    "version": "2.0"
  },
  "bufferViews": [
    {
      "buffer": 0,
      "byteLength": 14112,
      "name": "floatBufferViews",
      "target": 34963
    },
    {
      "buffer": 0,
      "byteLength": 16560,
      "byteOffset": 14112,
      "byteStride": 8,
      "name": "floatBufferViews",
      "target": 34962
    },
    {
      "buffer": 0,
      "byteLength": 24840,
      "byteOffset": 30672,
      "byteStride": 12,
      "name": "floatBufferViews",
      "target": 34962
    },
    {
      "buffer": 0,
      "byteLength": 16560,
      "byteOffset": 55512,
      "byteStride": 16,
      "name": "floatBufferViews",
      "target": 34962
    },
    {
      "buffer": 0,
      "byteLength": 488,
      "byteOffset": 72072,
      "name": "floatBufferViews"
    },
    {
      "buffer": 0,
      "byteLength": 1952,
      "byteOffset": 72560,
      "byteStride": 16,
      "name": "floatBufferViews"
    }
  ],
  "buffers": [
    {
      "byteLength": 74512,
      "uri": "scene.bin"
    }
  ],
  "images": [
    {
      "uri": "textures/Windmill_baseColor.png"
    },
    {
      "uri": "textures/Windmill_normal.png"
    }
  ],
  "materials": [
    {
      "doubleSided": true,
      "name": "Windmill",
      "normalTexture": {
        "index": 1
      },
      "pbrMetallicRoughness": {
        "baseColorTexture": {
          "index": 0
        },
        "metallicFactor": 0.0,
        "roughnessFactor": 0.5
      }
    }
  ],
  "meshes": [
    {
      "name": "Object_0",
      "primitives": [
        {
          "attributes": {
            "NORMAL": 1,
            "POSITION": 0,
            "TANGENT": 2,
            "TEXCOORD_0": 3,
            "TEXCOORD_1": 4
          },
          "indices": 5,
          "material": 0,
          "mode": 4
        }
      ]
    },
    {
      "name": "Object_1",
      "primitives": [
        {
          "attributes": {
            "NORMAL": 7,
            "POSITION": 6,
            "TANGENT": 8,
            "TEXCOORD_0": 9,
            "TEXCOORD_1": 10
          },
          "indices": 11,
          "material": 0,
          "mode": 4
        }
      ]
    },
    {
      "name": "Object_2",
      "primitives": [
        {
          "attributes": {
            "NORMAL": 13,
            "POSITION": 12,
            "TANGENT": 14,
            "TEXCOORD_0": 15,
            "TEXCOORD_1": 16
          },
          "indices": 17,
          "material": 0,
          "mode": 4
        }
      ]
    }
  ],
  "nodes": [
    {
      "children": [
        1
      ],
      "matrix": [
        1.0,
        0.0,
        0.0,
        0.0,
        0.0,
        2.220446049250313e-16,
        -1.0,
        0.0,
        0.0,
        1.0,
        2.220446049250313e-16,
        0.0,
        0.0,
        0.0,
        0.0,
        1.0
      ],
      "name": "Sketchfab_model"
    },
    {
      "children": [
        2
      ],
      "name": "root"
    },
    {
      "children": [
        3,
        6
      ],
      "matrix": [
        1.0,
        0.0,
        0.0,
        0.0,
        0.0,
        2.220446049250313e-16,
        1.0,
        0.0,
        0.0,
        -1.0,
        2.220446049250313e-16,
        0.0,
        0.0,
        0.0,
        0.0,
        1.0
      ],
      "name": "GLTF_SceneRootNode"
    },
    {
      "children": [
        4
      ],
      "name": "Windmil Mechanism_3"
    },
    {
      "children": [
        5
      ],
      "matrix": [
        1.0,
        0.0,
        0.0,
        0.0,
        0.0,
        -1.685873969314855e-07,
        0.9999999999999858,
        0.0,
        0.0,
        -0.9999999999999858,
        -1.685873969314855e-07,
        0.0,
        0.0,
        0.0,
        0.0,
        1.0
      ],
      "name": "Item_Gear_WindMill_Main_Vo_0_2"
    },
    {
      "mesh": 0,
      "name": "Object_5"
    },
    {
      "children": [
        7,
        9
      ],
      "name": "Spinner_6",
      "translation": [
        -0.07400000095367432,
        1.443000078201294,
        0.05000000074505806
      ]
    },
    {
      "children": [
        8
      ],
      "matrix": [
        1.0,
        0.0,
        0.0,
        0.0,
        0.0,
        -1.685873969314855e-07,
        0.9999999999999858,
        0.0,
        0.0,
        -0.9999999999999858,
        -1.685873969314855e-07,
        0.0,
        0.0,
        0.0,
        0.13600464165210724,
        1.0
      ],
      "name": "Item_Gear_WindMill_Leaves_A_Vo_0_4"
    },
    {
      "mesh": 1,
      "name": "Object_8"
    },
    {
      "children": [
        10
      ],
      "matrix": [
        1.0,
        0.0,
        0.0,
        0.0,
        0.0,
        -1.685873969314855e-07,
        0.9999999999999858,
        0.0,
        0.0,
        -0.9999999999999858,
        -1.685873969314855e-07,
        0.0,
        0.0009981393814086914,
        0.006999969482421875,
        0.05600280687212944,
        1.0
      ],
      "name": "Item_Gear_WindMill_Leaves_B_Vo_0_5"
    },
    {
      "mesh": 2,
      "name": "Object_10"
    }
  ],
  "samplers": [
    {
      "magFilter": 9729,
      "minFilter": 9987,
      "wrapS": 10497,
      "wrapT": 10497
    }
  ],
  "scene": 0,
  "scenes": [
    {
      "name": "Sketchfab_Scene",
      "nodes": [
        0
      ]
    }
  ],
  "textures": [
    {
      "sampler": 0,
      "source": 0
    },
    {
      "sampler": 0,
      "source": 1
    }
  ]
}
