# Blender 4.5.0
# www.blender.org
mtllib testfl_1.mtl
o Cube.001
v -12.291000 0.003150 -1.908170
v -12.291000 3.203150 -1.908170
v -12.291000 0.003150 -3.420854
v -12.291000 3.203150 -3.420854
v -6.291000 0.003150 -1.908170
v -6.291000 3.203150 -1.908170
v -6.291000 0.003150 -3.420854
v -6.291000 3.203150 -3.420854
v -12.291000 0.003150 0.579146
v -12.291000 3.203150 0.579146
v -12.291000 0.003150 -1.941995
v -12.291000 3.203150 -1.941995
v -6.291000 0.003150 0.579146
v -6.291000 3.203150 0.579146
v -6.291000 0.003150 -1.941995
v -6.291000 3.203150 -1.941995
v -7.107337 0.003150 -1.941995
v -8.497249 0.003150 -1.941995
v -7.137843 2.155860 -1.941995
v -8.468584 2.157970 -1.941995
v -12.127537 0.114736 -1.908170
v -12.127537 3.091564 -1.908170
v -12.127537 0.114736 -3.420854
v -12.127537 3.091564 -3.420854
v -6.454464 0.114736 -1.908170
v -6.454464 3.091564 -1.908170
v -6.454464 0.114736 -3.420854
v -6.454464 3.091564 -3.420854
v -12.127537 0.114736 0.579146
v -12.127537 3.091564 0.579146
v -12.157533 0.094260 -1.890021
v -12.157533 3.112040 -1.890021
v -6.454464 0.114736 0.579146
v -6.454464 3.091564 0.579146
v -6.424468 0.094260 -1.890021
v -6.424468 3.112040 -1.890021
v -7.107337 0.144123 -1.901538
v -8.497249 0.144134 -1.901550
v -7.137843 2.155860 -1.851973
v -8.468584 2.157970 -1.851973
vn -1.0000 -0.0000 -0.0000
vn 1.0000 -0.0000 -0.0000
vn -0.0000 -1.0000 -0.0000
vn -0.0000 1.0000 -0.0000
vn -0.0000 -0.0000 -1.0000
vn 0.9999 -0.0000 -0.0121
vn -0.0000 0.0018 1.0000
vn -0.9999 -0.0000 -0.0121
vn -0.0000 1.0000 0.0043
vn -0.0000 -1.0000 -0.0083
vn -0.0000 -0.0000 1.0000
vn -0.0000 0.2758 -0.9612
vn -0.9998 -0.0148 0.0160
vn -0.0016 -1.0000 -0.0000
vn 0.9998 -0.0139 0.0151
vt 0.375000 0.000000
vt 0.625000 0.000000
vt 0.625000 0.250000
vt 0.375000 0.250000
vt 0.375000 0.500000
vt 0.625000 0.500000
vt 0.625000 0.750000
vt 0.375000 0.750000
vt 0.125000 0.500000
vt 0.125000 0.750000
vt 0.875000 0.500000
vt 0.875000 0.750000
vt 0.375000 0.465986
vt 0.543181 0.464715
vt 0.543345 0.409267
vt 0.375000 0.408073
vt 0.283073 0.500000
vt 0.340986 0.500000
s 0
usemtl Material.002
f 1/1/1 2/2/1 4/3/1 3/4/1
f 7/5/2 8/6/2 6/7/2 5/8/2
f 3/9/3 7/5/3 5/8/3 1/10/3
f 8/6/4 4/11/4 2/12/4 6/7/4
f 9/1/1 10/2/1 12/3/1 11/4/1
f 11/4/5 12/3/5 16/6/5 15/5/5 17/13/5 19/14/5 20/15/5 18/16/5
f 15/5/2 16/6/2 14/7/2 13/8/2
f 11/9/3 18/17/3 17/18/3 15/5/3 13/8/3 9/10/3
f 16/6/4 12/11/4 10/12/4 14/7/4
f 21/1/2 23/4/2 24/3/2 22/2/2
f 27/5/1 25/8/1 26/7/1 28/6/1
f 23/9/4 21/10/4 25/8/4 27/5/4
f 28/6/3 26/7/3 22/12/3 24/11/3
f 29/1/6 31/4/6 32/3/6 30/2/6
f 31/4/7 38/16/7 40/15/7 39/14/7 37/13/7 35/5/7 36/6/7 32/3/7
f 35/5/8 33/8/8 34/7/8 36/6/8
f 31/9/9 29/10/9 33/8/9 35/5/9 37/18/9 38/17/9
f 36/6/10 34/7/10 30/12/10 32/11/10
f 2/2/11 1/1/11 21/1/11 22/2/11
f 3/4/5 4/3/5 24/3/5 23/4/5
f 7/5/5 3/9/5 23/9/5 27/5/5
f 4/11/5 8/6/5 28/6/5 24/11/5
f 8/6/5 7/5/5 27/5/5 28/6/5
f 5/8/11 6/7/11 26/7/11 25/8/11
f 1/10/11 5/8/11 25/8/11 21/10/11
f 6/7/11 2/12/11 22/12/11 26/7/11
f 10/2/11 9/1/11 29/1/11 30/2/11
f 13/8/11 14/7/11 34/7/11 33/8/11
f 9/10/11 13/8/11 33/8/11 29/10/11
f 14/7/11 10/12/11 30/12/11 34/7/11
f 17/18/12 18/17/12 38/17/12 37/18/12
f 19/14/13 17/13/13 37/13/13 39/14/13
f 20/15/14 19/14/14 39/14/14 40/15/14
f 18/16/15 20/15/15 40/15/15 38/16/15
